# xmcd
#
# Track frame offsets: 
#        183
#        61595
#        70208
#        103595
#        120633
#        152470
#        195478
#
# Disc length: 3572 seconds
#
# Revision: 12
# Processed by: cddbd v1.5.2PL0 Copyright (c) Steve Scherf et al.
# Submitted via: ExactAudioCopy v0.99pb5
#
DISCID=500df207
DTITLE=Guarneri Quartet - Beethoven - String Quartets Op. 130 and Grosse
DTITLE=Fuge
DYEAR=1987
DGENRE=Classical
TTITLE0=01. String Quartet in B flat major Op. 130 - 1. Adagio ma non 
TTITLE0=troppo-allegro
TTITLE1=02. String Quartet in B flat major Op. 130 - 2. Presto
TTITLE2=03. String Quartet in B flat major Op. 130 - 3. Andante con mo
TTITLE2=to ma non troppo
TTITLE3=04. String Quartet in B flat major Op. 130 - 4. Alla danza ted
TTITLE3=esca, allegro assai
TTITLE4=05. String Quartet in B flat major Op. 130 - 5. Cavatina, Adag
TTITLE4=io molto espressivo
TTITLE5=06. String Quartet in B flat major Op. 130 - 6. Finale, allegr
TTITLE5=o
TTITLE6=07. Grosse Fuge ( Original finale of Op. 130) Op. 133 - Overtu
TTITLE6=ra-meno mosso e moderato-allegro
EXTD=YEAR: 1987
EXTT0=
EXTT1=
EXTT2=
EXTT3=
EXTT4=
EXTT5=
EXTT6=
PLAYORDER=
